<svg width="18" height="20" viewBox="0 0 18 20" fill="none" xmlns="http://www.w3.org/2000/svg">
<path d="M16 1H12.722C12.5479 0.696959 12.2971 0.445042 11.9948 0.269523C11.6926 0.0940032 11.3495 0.00105394 11 0H7C6.65049 0.00105394 6.3074 0.0940032 6.00516 0.269523C5.70291 0.445042 5.45214 0.696959 5.278 1H2C1.46957 1 0.960859 1.21071 0.585786 1.58579C0.210714 1.96086 0 2.46957 0 3V18C0 18.5304 0.210714 19.0391 0.585786 19.4142C0.960859 19.7893 1.46957 20 2 20H16C16.5304 20 17.0391 19.7893 17.4142 19.4142C17.7893 19.0391 18 18.5304 18 18V3C18 2.46957 17.7893 1.96086 17.4142 1.58579C17.0391 1.21071 16.5304 1 16 1ZM11 2V4H7V2H11ZM16 18H2V3H5V4C4.73478 4 4.48043 4.10536 4.29289 4.29289C4.10536 4.48043 4 4.73478 4 5C4 5.26522 4.10536 5.51957 4.29289 5.70711C4.48043 5.89464 4.73478 6 5 6H13C13.2652 6 13.5196 5.89464 13.7071 5.70711C13.8946 5.51957 14 5.26522 14 5C14 4.73478 13.8946 4.48043 13.7071 4.29289C13.5196 4.10536 13.2652 4 13 4V3H16V18Z" fill="white"/>
<path d="M8.024 14.429C7.76249 14.4306 7.51091 14.3289 7.324 14.146L5.3 12.182C5.20571 12.0901 5.13045 11.9805 5.07852 11.8595C5.02658 11.7385 4.99899 11.6084 4.99732 11.4767C4.99565 11.3451 5.01993 11.2143 5.06878 11.0921C5.11762 10.9698 5.19007 10.8583 5.282 10.764C5.37392 10.6697 5.48352 10.5945 5.60453 10.5425C5.72554 10.4906 5.8556 10.463 5.98727 10.4613C6.11895 10.4597 6.24966 10.4839 6.37195 10.5328C6.49424 10.5816 6.60571 10.6541 6.7 10.746L8.028 12.035L11.308 8.854C11.4013 8.75829 11.5129 8.68226 11.6361 8.6304C11.7593 8.57855 11.8916 8.55191 12.0253 8.55208C12.1589 8.55225 12.2912 8.57922 12.4143 8.63139C12.5374 8.68355 12.6487 8.75987 12.7418 8.85581C12.8349 8.95176 12.9078 9.06539 12.9562 9.18999C13.0046 9.31458 13.0275 9.44762 13.0236 9.58123C13.0197 9.71485 12.9891 9.84632 12.9335 9.96789C12.8779 10.0895 12.7985 10.1986 12.7 10.289L8.725 14.146C8.53736 14.3284 8.2857 14.43 8.024 14.429Z" fill="white"/>
</svg>
