<svg xmlns="http://www.w3.org/2000/svg" width="20" height="21" viewBox="0 0 20 21" fill="none">
  <path d="M15.2178 16.3337C15.0076 16.3337 14.8061 16.4215 14.6575 16.5777C14.509 16.734 14.4255 16.946 14.4255 17.167H4.9181V8.00033H7.29495C7.7152 8.00033 8.11824 7.82474 8.4154 7.51218C8.71257 7.19962 8.87951 6.7757 8.87951 6.33367V3.83367H14.4255V7.167C14.4255 7.38802 14.509 7.59998 14.6575 7.75626C14.8061 7.91254 15.0076 8.00033 15.2178 8.00033C15.4279 8.00033 15.6294 7.91254 15.778 7.75626C15.9266 7.59998 16.01 7.38802 16.01 7.167V3.83367C16.0166 3.39919 15.8591 2.97971 15.572 2.66725C15.2848 2.3548 14.8916 2.17489 14.4786 2.167H7.95175C7.63937 2.16596 7.3299 2.23017 7.0413 2.35591C6.75269 2.48166 6.49071 2.66643 6.27053 2.8995L4.02996 5.25617C3.80836 5.48775 3.63269 5.76332 3.51314 6.06687C3.39359 6.37043 3.33255 6.69593 3.33354 7.0245V17.167C3.32697 17.6015 3.48452 18.021 3.77163 18.3334C4.05874 18.6459 4.45196 18.8258 4.86502 18.8337H14.4255C14.8457 18.8337 15.2488 18.6581 15.5459 18.3455C15.8431 18.0329 16.01 17.609 16.01 17.167C16.01 16.946 15.9266 16.734 15.778 16.5777C15.6294 16.4215 15.4279 16.3337 15.2178 16.3337ZM7.29495 4.17867V6.33367H5.24611L7.29495 4.17867Z" fill="#1F2A37"/>
  <path d="M16.4347 11.5778L14.2417 9.27117C14.1686 9.19157 14.0812 9.12809 13.9845 9.08442C13.8878 9.04074 13.7839 9.01775 13.6787 9.01679C13.5735 9.01583 13.4692 9.03691 13.3718 9.07882C13.2744 9.12072 13.186 9.18259 13.1116 9.26084C13.0372 9.33908 12.9783 9.43213 12.9385 9.53454C12.8987 9.63695 12.8786 9.74668 12.8795 9.85733C12.8805 9.96798 12.9023 10.0773 12.9438 10.179C12.9854 10.2807 13.0457 10.3726 13.1214 10.4495L13.9612 11.3337H8.87951C8.66938 11.3337 8.46786 11.4215 8.31928 11.5777C8.1707 11.734 8.08723 11.946 8.08723 12.167C8.08723 12.388 8.1707 12.6 8.31928 12.7563C8.46786 12.9125 8.66938 13.0003 8.87951 13.0003H13.9612L13.1214 13.8845C13.0457 13.9614 12.9854 14.0533 12.9438 14.155C12.9023 14.2567 12.8805 14.366 12.8795 14.4767C12.8786 14.5873 12.8987 14.697 12.9385 14.7995C12.9783 14.9019 13.0372 14.9949 13.1116 15.0732C13.186 15.1514 13.2744 15.2133 13.3718 15.2552C13.4692 15.2971 13.5735 15.3182 13.6787 15.3172C13.7839 15.3162 13.8878 15.2933 13.9845 15.2496C14.0812 15.2059 14.1686 15.1424 14.2417 15.0628L16.4347 12.7562C16.5832 12.5999 16.6667 12.388 16.6667 12.167C16.6667 11.946 16.5832 11.7341 16.4347 11.5778Z" fill="#1F2A37"/>
</svg>