<svg xmlns="http://www.w3.org/2000/svg" width="20" height="21" viewBox="0 0 20 21" fill="none">
  <path d="M10 13.8333C9.77899 13.8333 9.56702 13.7455 9.41074 13.5893C9.25446 13.433 9.16667 13.221 9.16667 13V3.83333C9.16667 3.61232 9.25446 3.40036 9.41074 3.24408C9.56702 3.0878 9.77899 3 10 3C10.221 3 10.433 3.0878 10.5893 3.24408C10.7455 3.40036 10.8333 3.61232 10.8333 3.83333V13C10.8333 13.221 10.7455 13.433 10.5893 13.5893C10.433 13.7455 10.221 13.8333 10 13.8333Z" fill="white"/>
  <path d="M10 13.8333C9.77899 13.8333 9.56702 13.7455 9.41074 13.5893L6.0775 10.2558C5.99791 10.179 5.93442 10.087 5.89075 9.98534C5.84707 9.88367 5.82408 9.77432 5.82312 9.66367C5.82216 9.55302 5.84325 9.44328 5.88515 9.34087C5.92705 9.23846 5.98893 9.14541 6.06717 9.06717C6.14541 8.98893 6.23846 8.92705 6.34087 8.88515C6.44328 8.84325 6.55302 8.82216 6.66367 8.82312C6.77432 8.82409 6.88367 8.84707 6.98534 8.89075C7.08701 8.93442 7.17896 8.99791 7.25583 9.0775L10 11.8217L12.7442 9.0775C12.9013 8.9257 13.1118 8.84171 13.3303 8.8436C13.5488 8.8455 13.7578 8.93314 13.9123 9.08765C14.0669 9.24216 14.1545 9.45117 14.1564 9.66967C14.1583 9.88816 14.0743 10.0987 13.9225 10.2558L10.5893 13.5893C10.433 13.7455 10.221 13.8333 10 13.8333Z" fill="white"/>
  <path d="M14.1667 18H5.83333C5.17029 18 4.53441 17.7366 4.06557 17.2678C3.59672 16.7989 3.33333 16.163 3.33333 15.5V13C3.33333 12.779 3.42113 12.567 3.57741 12.4107C3.73369 12.2545 3.94565 12.1667 4.16667 12.1667C4.38768 12.1667 4.59964 12.2545 4.75592 12.4107C4.9122 12.567 5 12.779 5 13V15.5C5 15.721 5.0878 15.933 5.24408 16.0893C5.40036 16.2455 5.61232 16.3333 5.83333 16.3333H14.1667C14.3877 16.3333 14.5996 16.2455 14.7559 16.0893C14.9122 15.933 15 15.721 15 15.5V13C15 12.779 15.0878 12.567 15.2441 12.4107C15.4004 12.2545 15.6123 12.1667 15.8333 12.1667C16.0543 12.1667 16.2663 12.2545 16.4226 12.4107C16.5789 12.567 16.6667 12.779 16.6667 13V15.5C16.6667 16.163 16.4033 16.7989 15.9344 17.2678C15.4656 17.7366 14.8297 18 14.1667 18Z" fill="white"/>
</svg>